<svg width="1200" height="560" viewBox="0 0 1200 560" xmlns="http://www.w3.org/2000/svg" role="img" aria-label="Hero illustration">
  <defs>
    <linearGradient id="bg" x1="0" x2="1" y1="0" y2="1">
      <stop offset="0" stop-color="#0b1021"/>
      <stop offset="1" stop-color="#121a38"/>
    </linearGradient>
    <linearGradient id="c1" x1="0" x2="1" y1="0" y2="1">
      <stop offset="0" stop-color="#00D1FF" stop-opacity="0.9"/>
      <stop offset="1" stop-color="#7C4DFF" stop-opacity="0.9"/>
    </linearGradient>
    <filter id="blur">
      <feGaussianBlur stdDeviation="60"/>
    </filter>
  </defs>
  <rect width="1200" height="560" fill="url(#bg)"/>
  <circle cx="260" cy="180" r="160" fill="url(#c1)" opacity="0.35" filter="url(#blur)"/>
  <circle cx="980" cy="420" r="180" fill="url(#c1)" opacity="0.25" filter="url(#blur)"/>
  <g transform="translate(140,120)">
    <rect x="0" y="0" width="420" height="280" rx="16" ry="16" fill="#0F1733" stroke="#2b3a72" stroke-opacity="0.6"/>
    <g transform="translate(24,24)">
      <rect x="0" y="0" width="372" height="32" rx="8" fill="#141e40"/>
      <rect x="8" y="7" width="140" height="18" rx="6" fill="#233066"/>
      <rect x="160" y="7" width="100" height="18" rx="6" fill="#233066"/>
      <rect x="270" y="7" width="94" height="18" rx="6" fill="#233066"/>
      <g transform="translate(0,52)">
        <rect x="0" y="0" width="372" height="160" rx="10" fill="#101836" stroke="#233066"/>
        <rect x="16" y="20" width="160" height="120" rx="8" fill="#18224a"/>
        <g transform="translate(188,20)">
          <rect x="0" y="0" width="168" height="16" rx="6" fill="#233066"/>
          <rect x="0" y="26" width="140" height="14" rx="6" fill="#1b2754"/>
          <rect x="0" y="46" width="128" height="14" rx="6" fill="#1b2754"/>
          <rect x="0" y="66" width="152" height="14" rx="6" fill="#1b2754"/>
          <rect x="0" y="96" width="110" height="14" rx="6" fill="#1b2754"/>
        </g>
      </g>
    </g>
  </g>
  <g transform="translate(660,150)">
    <rect x="0" y="0" width="380" height="44" rx="10" fill="#141e40"/>
    <rect x="0" y="60" width="300" height="18" rx="6" fill="#233066"/>
    <rect x="0" y="84" width="340" height="18" rx="6" fill="#233066"/>
    <rect x="0" y="108" width="260" height="18" rx="6" fill="#233066"/>
    <rect x="0" y="148" width="220" height="40" rx="10" fill="#00D1FF"/>
    <rect x="232" y="148" width="148" height="40" rx="10" fill="#7C4DFF"/>
  </g>
</svg>